<svg class="main-svg" xmlns="http://www.w3.org/2000/svg" xmlns:xlink="http://www.w3.org/1999/xlink" width="700" height="400" style="" viewBox="0 0 700 400"><rect x="0" y="0" width="700" height="400" style="fill: rgb(255, 255, 255); fill-opacity: 1;"/><defs id="defs-c7d0ae"><g class="clips"><clipPath id="clipc7d0aexyplot" class="plotclip"><rect width="187.65" height="220"/></clipPath><clipPath id="clipc7d0aex2y2plot" class="plotclip"><rect width="187.64999999999998" height="220"/></clipPath><clipPath class="axesclip" id="clipc7d0aex"><rect x="80" y="0" width="187.65" height="400"/></clipPath><clipPath class="axesclip" id="clipc7d0aey"><rect x="0" y="100" width="700" height="220"/></clipPath><clipPath class="axesclip" id="clipc7d0aexy"><rect x="80" y="100" width="187.65" height="220"/></clipPath><clipPath class="axesclip" id="clipc7d0aey2"><rect x="0" y="100" width="700" height="220"/></clipPath><clipPath class="axesclip" id="clipc7d0aexy2"><rect x="80" y="100" width="187.65" height="220"/></clipPath><clipPath class="axesclip" id="clipc7d0aex2"><rect x="309.35" y="0" width="187.64999999999998" height="400"/></clipPath><clipPath class="axesclip" id="clipc7d0aex2y"><rect x="309.35" y="100" width="187.64999999999998" height="220"/></clipPath><clipPath class="axesclip" id="clipc7d0aex2y2"><rect x="309.35" y="100" width="187.64999999999998" height="220"/></clipPath></g><g class="gradients"/></defs><g class="bglayer"/><g class="layer-below"><g class="imagelayer"/><g class="shapelayer"/></g><g class="cartesianlayer"><g class="subplot xy"><g class="layer-subplot"><g class="shapelayer"/><g class="imagelayer"/></g><g class="gridlayer"><g class="x"/><g class="y"/></g><g class="zerolinelayer"><path class="xzl zl crisp" transform="translate(80,0)" d="M0,100v220" style="stroke: rgb(235, 240, 248); stroke-opacity: 1; stroke-width: 2px;"/><path class="yzl zl crisp" transform="translate(0,309)" d="M80,0h187.65" style="stroke: rgb(235, 240, 248); stroke-opacity: 1; stroke-width: 2px;"/></g><path class="xlines-below"/><path class="ylines-below"/><g class="overlines-below"/><g class="xaxislayer-below"/><g class="yaxislayer-below"/><g class="overaxes-below"/><g class="plot" transform="translate(80, 100)" clip-path="url('#clipc7d0aexyplot')"><g class="scatterlayer mlayer"><g class="trace scatter traceaef50b" style="stroke-miterlimit: 2; opacity: 1;"><g class="fills"/><g class="errorbars"/><g class="lines"><path class="js-line" d="M0,209Q12.51,209 18.77,209C25.02,209 31.28,208.99 37.53,208.99C43.79,208.99 50.04,208.98 56.3,208.98C62.55,208.98 68.81,208.97 75.06,208.97C81.32,208.97 87.57,208.97 93.83,208.96C100.08,208.95 106.34,208.94 112.59,208.93C118.85,208.92 125.1,208.91 131.36,208.89C137.61,208.87 143.87,208.85 150.12,208.83C156.38,208.81 162.63,208.79 168.89,208.75Q175.14,208.72 187.65,208.62" style="vector-effect: non-scaling-stroke; fill: none; stroke: rgb(99, 110, 250); stroke-opacity: 1; stroke-width: 2px; opacity: 1;"/></g><g class="points"/><g class="text"/></g><g class="trace scatter trace27e03b" style="stroke-miterlimit: 2; opacity: 1;"><g class="fills"/><g class="errorbars"/><g class="lines"><path class="js-line" d="M0,209Q12.51,209 18.77,209C25.02,209 31.28,208.99 37.53,208.99C43.79,208.98 50.04,208.98 56.3,208.97C62.55,208.96 68.81,208.96 75.06,208.95C81.32,208.94 87.57,208.92 93.83,208.89C100.08,208.87 106.34,208.85 112.59,208.8C118.85,208.75 125.1,208.7 131.36,208.61C137.61,208.52 143.87,208.43 150.12,208.27C156.38,208.11 162.64,207.94 168.89,207.63Q175.15,207.32 187.65,206.43" style="vector-effect: non-scaling-stroke; fill: none; stroke: rgb(239, 85, 59); stroke-opacity: 1; stroke-width: 2px; opacity: 1;"/></g><g class="points"/><g class="text"/></g><g class="trace scatter trace8c440f" style="stroke-miterlimit: 2; opacity: 1;"><g class="fills"/><g class="errorbars"/><g class="lines"><path class="js-line" d="M0,209Q12.51,208.99 18.77,208.99C25.02,208.99 31.28,208.98 37.53,208.98C43.79,208.97 50.04,208.97 56.3,208.96C62.55,208.95 68.81,208.93 75.06,208.9C81.32,208.87 87.57,208.84 93.83,208.77C100.08,208.7 106.34,208.64 112.59,208.48C118.85,208.32 125.11,208.18 131.36,207.83C137.62,207.48 143.88,207.15 150.12,206.36C156.39,205.56 162.72,204.81 168.89,203.06Q175.24,201.26 187.65,195.62" style="vector-effect: non-scaling-stroke; fill: none; stroke: rgb(0, 204, 150); stroke-opacity: 1; stroke-width: 2px; opacity: 1;"/></g><g class="points"/><g class="text"/></g><g class="trace scatter trace1edc97" style="stroke-miterlimit: 2; opacity: 1;"><g class="fills"/><g class="errorbars"/><g class="lines"><path class="js-line" d="M0,209Q12.51,208.99 18.77,208.99C25.02,208.99 31.28,208.99 37.53,208.98C43.79,208.97 50.04,208.97 56.3,208.94C62.55,208.92 68.81,208.89 75.06,208.83C81.32,208.76 87.58,208.72 93.83,208.55C100.09,208.38 106.34,208.26 112.59,207.82C118.85,207.38 125.15,207.04 131.36,205.9C137.66,204.74 144.11,203.68 150.12,200.86C156.66,197.8 163.28,193.95 168.89,187.63Q176.25,179.34 187.65,152.91" style="vector-effect: non-scaling-stroke; fill: none; stroke: rgb(25, 211, 243); stroke-opacity: 1; stroke-width: 2px; opacity: 1;"/></g><g class="points"/><g class="text"/></g><g class="trace scatter trace32e068" style="stroke-miterlimit: 2; opacity: 1;"><g class="fills"/><g class="errorbars"/><g class="lines"><path class="js-line" d="M0,209Q12.51,209 18.77,208.99C25.02,208.99 31.28,208.98 37.53,208.97C43.79,208.96 50.04,208.95 56.3,208.91C62.55,208.87 68.81,208.85 75.06,208.73C81.32,208.61 87.58,208.55 93.83,208.19C100.09,207.83 106.38,207.63 112.59,206.56C118.89,205.47 125.39,204.62 131.36,201.67C137.97,198.4 144.63,194.15 150.12,187C157.9,176.87 163.57,162.05 168.89,143Q177.76,111.2 187.65,11" style="vector-effect: non-scaling-stroke; fill: none; stroke: rgb(255, 161, 90); stroke-opacity: 1; stroke-width: 2px; opacity: 1;"/></g><g class="points"/><g class="text"/></g></g></g><g class="overplot"/><path class="xlines-above crisp" style="fill: none;" d="M0,0"/><path class="ylines-above crisp" style="fill: none;" d="M0,0"/><g class="overlines-above"/><g class="xaxislayer-above"><g class="xtick"><text text-anchor="middle" x="0" y="333" transform="translate(80,0)" style="font-family: 'Open Sans', verdana, arial, sans-serif; font-size: 12px; fill: rgb(42, 63, 95); fill-opacity: 1; white-space: pre;">0</text></g><g class="xtick"><text text-anchor="middle" x="0" y="333" transform="translate(173.82999999999998,0)" style="font-family: 'Open Sans', verdana, arial, sans-serif; font-size: 12px; fill: rgb(42, 63, 95); fill-opacity: 1; white-space: pre;">5</text></g><g class="xtick"><text text-anchor="middle" x="0" y="333" transform="translate(267.65,0)" style="font-family: 'Open Sans', verdana, arial, sans-serif; font-size: 12px; fill: rgb(42, 63, 95); fill-opacity: 1; white-space: pre;">10</text></g></g><g class="yaxislayer-above"><g class="ytick"><text text-anchor="end" x="79" y="4.199999999999999" transform="translate(0,309)" style="font-family: 'Open Sans', verdana, arial, sans-serif; font-size: 12px; fill: rgb(42, 63, 95); fill-opacity: 1; white-space: pre;">0</text></g><g class="ytick"><text text-anchor="end" x="79" y="4.199999999999999" transform="translate(0,264.28999999999996)" style="font-family: 'Open Sans', verdana, arial, sans-serif; font-size: 12px; fill: rgb(42, 63, 95); fill-opacity: 1; white-space: pre;">20k</text></g><g class="ytick"><text text-anchor="end" x="79" y="4.199999999999999" transform="translate(0,219.57999999999998)" style="font-family: 'Open Sans', verdana, arial, sans-serif; font-size: 12px; fill: rgb(42, 63, 95); fill-opacity: 1; white-space: pre;">40k</text></g><g class="ytick"><text text-anchor="end" x="79" y="4.199999999999999" transform="translate(0,174.87)" style="font-family: 'Open Sans', verdana, arial, sans-serif; font-size: 12px; fill: rgb(42, 63, 95); fill-opacity: 1; white-space: pre;">60k</text></g><g class="ytick"><text text-anchor="end" x="79" y="4.199999999999999" transform="translate(0,130.16)" style="font-family: 'Open Sans', verdana, arial, sans-serif; font-size: 12px; fill: rgb(42, 63, 95); fill-opacity: 1; white-space: pre;">80k</text></g></g><g class="overaxes-above"/></g><g class="subplot x2y2"><g class="layer-subplot"><g class="shapelayer"/><g class="imagelayer"/></g><g class="gridlayer"><g class="x2"/><g class="y2"/></g><g class="zerolinelayer"><path class="x2zl zl crisp" transform="translate(309.35,0)" d="M0,100v220" style="stroke: rgb(235, 240, 248); stroke-opacity: 1; stroke-width: 2px;"/></g><path class="xlines-below"/><path class="ylines-below"/><g class="overlines-below"/><g class="xaxislayer-below"/><g class="yaxislayer-below"/><g class="overaxes-below"/><g class="plot" transform="translate(309.35, 100)" clip-path="url('#clipc7d0aex2y2plot')"><g class="scatterlayer mlayer"><g class="trace scatter traceacc3a0" style="stroke-miterlimit: 2; opacity: 1;"><g class="fills"/><g class="errorbars"/><g class="lines"><path class="js-line" d="M0,209Q12.31,197.68 18.76,193.07C24.84,188.73 31.21,185.36 37.53,181.92C43.72,178.55 50.01,175.56 56.29,172.59C62.52,169.65 68.79,166.9 75.06,164.17C81.3,161.46 87.56,158.85 93.82,156.26C100.07,153.68 106.33,151.17 112.59,148.67C118.84,146.17 125.09,143.71 131.35,141.26C137.6,138.81 143.86,136.39 150.12,133.98C156.37,131.57 162.62,129.17 168.88,126.78Q175.13,124.39 187.65,119.63" style="vector-effect: non-scaling-stroke; fill: none; stroke: rgb(99, 110, 250); stroke-opacity: 1; stroke-width: 2px; opacity: 1;"/></g><g class="points"/><g class="text"/></g><g class="trace scatter trace82d6e6" style="stroke-miterlimit: 2; opacity: 1;"><g class="fills"/><g class="errorbars"/><g class="lines"><path class="js-line" d="M0,209Q12.31,196.14 18.76,190.64C24.84,185.46 31.21,181.17 37.53,176.76C43.72,172.44 50.01,168.45 56.29,164.44C62.52,160.47 68.79,156.65 75.06,152.82C81.3,149.01 87.56,145.27 93.82,141.53C100.07,137.8 106.33,134.1 112.59,130.41C118.84,126.72 125.09,123.06 131.35,119.39C137.6,115.72 143.86,112.07 150.12,108.41C156.37,104.75 162.62,101.1 168.88,97.45Q175.13,93.8 187.65,86.51" style="vector-effect: non-scaling-stroke; fill: none; stroke: rgb(239, 85, 59); stroke-opacity: 1; stroke-width: 2px; opacity: 1;"/></g><g class="points"/><g class="text"/></g><g class="trace scatter trace22e725" style="stroke-miterlimit: 2; opacity: 1;"><g class="fills"/><g class="errorbars"/><g class="lines"><path class="js-line" d="M0,209Q12.32,194.78 18.76,188.51C24.85,182.57 31.22,177.45 37.53,172.19C43.73,167.02 50.01,162.12 56.29,157.19C62.52,152.29 68.8,147.51 75.06,142.71C81.31,137.93 87.56,133.18 93.82,128.44C100.07,123.7 106.33,118.99 112.59,114.27C118.84,109.56 125.1,104.85 131.35,100.15C137.61,95.44 143.86,90.74 150.12,86.04C156.37,81.34 162.62,76.63 168.88,71.93Q175.13,67.23 187.65,57.84" style="vector-effect: non-scaling-stroke; fill: none; stroke: rgb(0, 204, 150); stroke-opacity: 1; stroke-width: 2px; opacity: 1;"/></g><g class="points"/><g class="text"/></g><g class="trace scatter traceea3991" style="stroke-miterlimit: 2; opacity: 1;"><g class="fills"/><g class="errorbars"/><g class="lines"><path class="js-line" d="M0,209Q12.34,193.59 18.76,186.62C24.86,180 31.23,174.13 37.53,168.1C43.74,162.16 50.02,156.46 56.29,150.71C62.53,144.99 68.8,139.36 75.06,133.71C81.31,128.07 87.56,122.46 93.82,116.85C100.07,111.24 106.33,105.64 112.59,100.04C118.84,94.44 125.1,88.84 131.35,83.25C137.61,77.65 143.86,72.06 150.12,66.47C156.37,60.88 162.63,55.29 168.88,49.7Q175.14,44.11 187.65,32.92" style="vector-effect: non-scaling-stroke; fill: none; stroke: rgb(25, 211, 243); stroke-opacity: 1; stroke-width: 2px; opacity: 1;"/></g><g class="points"/><g class="text"/></g><g class="trace scatter tracec324c1" style="stroke-miterlimit: 2; opacity: 1;"><g class="fills"/><g class="errorbars"/><g class="lines"><path class="js-line" d="M0,209Q12.35,192.49 18.76,184.9C24.87,177.67 31.24,171.13 37.53,164.42C43.75,157.79 50.02,151.36 56.29,144.88C62.53,138.43 68.8,132.04 75.06,125.64C81.31,119.25 87.56,112.88 93.82,106.5C100.07,100.13 106.33,93.76 112.59,87.39C118.84,81.02 125.1,74.66 131.35,68.29C137.61,61.92 143.86,55.56 150.12,49.19C156.37,42.83 162.63,36.46 168.88,30.1Q175.14,23.73 187.65,11" style="vector-effect: non-scaling-stroke; fill: none; stroke: rgb(255, 161, 90); stroke-opacity: 1; stroke-width: 2px; opacity: 1;"/></g><g class="points"/><g class="text"/></g></g></g><g class="overplot"/><path class="xlines-above crisp" style="fill: none;" d="M0,0"/><path class="ylines-above crisp" style="fill: none;" d="M0,0"/><g class="overlines-above"/><g class="xaxislayer-above"><g class="x2tick"><text text-anchor="middle" x="0" y="333" transform="translate(309.35,0)" style="font-family: 'Open Sans', verdana, arial, sans-serif; font-size: 12px; fill: rgb(42, 63, 95); fill-opacity: 1; white-space: pre;">0</text></g><g class="x2tick"><text text-anchor="middle" x="0" y="333" transform="translate(403.17,0)" style="font-family: 'Open Sans', verdana, arial, sans-serif; font-size: 12px; fill: rgb(42, 63, 95); fill-opacity: 1; white-space: pre;">5</text></g><g class="x2tick"><text text-anchor="middle" x="0" y="333" transform="translate(497,0)" style="font-family: 'Open Sans', verdana, arial, sans-serif; font-size: 12px; fill: rgb(42, 63, 95); fill-opacity: 1; white-space: pre;">10</text></g></g><g class="yaxislayer-above"><g class="y2tick"><text text-anchor="end" x="308.35" y="4.199999999999999" transform="translate(0,309)" style="font-family: 'Open Sans', verdana, arial, sans-serif; font-size: 12px; fill: rgb(42, 63, 95); fill-opacity: 1; white-space: pre;">1</text></g><g class="y2tick"><text text-anchor="end" x="308.35" y="4.199999999999999" transform="translate(0,268.98)" style="font-family: 'Open Sans', verdana, arial, sans-serif; font-size: 12px; fill: rgb(42, 63, 95); fill-opacity: 1; white-space: pre;">10</text></g><g class="y2tick"><text text-anchor="end" x="308.35" y="4.199999999999999" transform="translate(0,228.96)" style="font-family: 'Open Sans', verdana, arial, sans-serif; font-size: 12px; fill: rgb(42, 63, 95); fill-opacity: 1; white-space: pre;">100</text></g><g class="y2tick"><text text-anchor="end" x="308.35" y="4.199999999999999" transform="translate(0,188.93)" style="font-family: 'Open Sans', verdana, arial, sans-serif; font-size: 12px; fill: rgb(42, 63, 95); fill-opacity: 1; white-space: pre;">1000</text></g><g class="y2tick"><text text-anchor="end" x="308.35" y="4.199999999999999" transform="translate(0,148.91)" style="font-family: 'Open Sans', verdana, arial, sans-serif; font-size: 12px; fill: rgb(42, 63, 95); fill-opacity: 1; white-space: pre;">10k</text></g><g class="y2tick"><text text-anchor="end" x="308.35" y="4.199999999999999" transform="translate(0,108.89)" style="font-family: 'Open Sans', verdana, arial, sans-serif; font-size: 12px; fill: rgb(42, 63, 95); fill-opacity: 1; white-space: pre;">100k</text></g></g><g class="overaxes-above"/></g></g><g class="polarlayer"/><g class="ternarylayer"/><g class="geolayer"/><g class="funnelarealayer"/><g class="pielayer"/><g class="treemaplayer"/><g class="sunburstlayer"/><g class="glimages"/><defs id="topdefs-c7d0ae"><g class="clips"/><clipPath id="legendc7d0ae"><rect width="183" height="105" x="0" y="0"/></clipPath></defs><g class="layer-above"><g class="imagelayer"/><g class="shapelayer"/></g><g class="infolayer"><g class="legend" pointer-events="all" transform="translate(505.34000000000003, 100)"><rect class="bg" shape-rendering="crispEdges" style="stroke: rgb(68, 68, 68); stroke-opacity: 1; fill: rgb(255, 255, 255); fill-opacity: 1; stroke-width: 0px;" width="183" height="105" x="0" y="0"/><g class="scrollbox" transform="translate(0, 0)" clip-path="url('#legendc7d0ae')"><g class="groups" transform="translate(0, 0)"><g class="traces" style="opacity: 1;" transform="translate(0, 14.5)"><text class="legendtext user-select-none" text-anchor="start" x="40" y="4.680000000000001" style="font-family: 'Open Sans', verdana, arial, sans-serif; font-size: 12px; fill: rgb(42, 63, 95); fill-opacity: 1; white-space: pre;">Growth factor of 1.5</text><g class="layers" style="opacity: 1;"><g class="legendfill"/><g class="legendlines"><path class="js-line" d="M5,0h30" style="fill: none; stroke: rgb(99, 110, 250); stroke-opacity: 1; stroke-width: 2px;"/></g><g class="legendsymbols"><g class="legendpoints"/></g></g><rect class="legendtoggle" pointer-events="all" x="0" y="-9.5" width="177.703125" height="19" style="cursor: pointer; fill: rgb(0, 0, 0); fill-opacity: 0;"/></g><g class="traces" style="opacity: 1;" transform="translate(0, 33.5)"><text class="legendtext user-select-none" text-anchor="start" x="40" y="4.680000000000001" style="font-family: 'Open Sans', verdana, arial, sans-serif; font-size: 12px; fill: rgb(42, 63, 95); fill-opacity: 1; white-space: pre;">Growth factor of 1.875</text><g class="layers" style="opacity: 1;"><g class="legendfill"/><g class="legendlines"><path class="js-line" d="M5,0h30" style="fill: none; stroke: rgb(239, 85, 59); stroke-opacity: 1; stroke-width: 2px;"/></g><g class="legendsymbols"><g class="legendpoints"/></g></g><rect class="legendtoggle" pointer-events="all" x="0" y="-9.5" width="177.703125" height="19" style="cursor: pointer; fill: rgb(0, 0, 0); fill-opacity: 0;"/></g><g class="traces" style="opacity: 1;" transform="translate(0, 52.5)"><text class="legendtext user-select-none" text-anchor="start" x="40" y="4.680000000000001" style="font-family: 'Open Sans', verdana, arial, sans-serif; font-size: 12px; fill: rgb(42, 63, 95); fill-opacity: 1; white-space: pre;">Growth factor of 2.25</text><g class="layers" style="opacity: 1;"><g class="legendfill"/><g class="legendlines"><path class="js-line" d="M5,0h30" style="fill: none; stroke: rgb(0, 204, 150); stroke-opacity: 1; stroke-width: 2px;"/></g><g class="legendsymbols"><g class="legendpoints"/></g></g><rect class="legendtoggle" pointer-events="all" x="0" y="-9.5" width="177.703125" height="19" style="cursor: pointer; fill: rgb(0, 0, 0); fill-opacity: 0;"/></g><g class="traces" style="opacity: 1;" transform="translate(0, 71.5)"><text class="legendtext user-select-none" text-anchor="start" x="40" y="4.680000000000001" style="font-family: 'Open Sans', verdana, arial, sans-serif; font-size: 12px; fill: rgb(42, 63, 95); fill-opacity: 1; white-space: pre;">Growth factor of 2.625</text><g class="layers" style="opacity: 1;"><g class="legendfill"/><g class="legendlines"><path class="js-line" d="M5,0h30" style="fill: none; stroke: rgb(25, 211, 243); stroke-opacity: 1; stroke-width: 2px;"/></g><g class="legendsymbols"><g class="legendpoints"/></g></g><rect class="legendtoggle" pointer-events="all" x="0" y="-9.5" width="177.703125" height="19" style="cursor: pointer; fill: rgb(0, 0, 0); fill-opacity: 0;"/></g><g class="traces" style="opacity: 1;" transform="translate(0, 90.5)"><text class="legendtext user-select-none" text-anchor="start" x="40" y="4.680000000000001" style="font-family: 'Open Sans', verdana, arial, sans-serif; font-size: 12px; fill: rgb(42, 63, 95); fill-opacity: 1; white-space: pre;">Growth factor of 3.0</text><g class="layers" style="opacity: 1;"><g class="legendfill"/><g class="legendlines"><path class="js-line" d="M5,0h30" style="fill: none; stroke: rgb(255, 161, 90); stroke-opacity: 1; stroke-width: 2px;"/></g><g class="legendsymbols"><g class="legendpoints"/></g></g><rect class="legendtoggle" pointer-events="all" x="0" y="-9.5" width="177.703125" height="19" style="cursor: pointer; fill: rgb(0, 0, 0); fill-opacity: 0;"/></g></g></g><rect class="scrollbar" rx="20" ry="3" width="0" height="0" style="fill: rgb(128, 139, 164); fill-opacity: 1;" x="0" y="0"/></g><g class="g-gtitle"><text class="gtitle" x="35" y="50" text-anchor="start" dy="0em" style="font-family: 'Open Sans', verdana, arial, sans-serif; font-size: 17px; fill: rgb(42, 63, 95); opacity: 1; font-weight: normal; white-space: pre;">Exponential growth of infected population (cumulative sum)</text></g><g class="g-xtitle"/><g class="g-x2title"/><g class="g-ytitle"/><g class="g-y2title"/><g class="annotation" data-index="0" style="opacity: 1;"><g class="annotation-text-g" transform="rotate(0,173.825,88.5)"><g class="cursor-pointer" transform="translate(124, 77)"><rect class="bg" x="0.5" y="0.5" width="98" height="22" style="stroke-width: 1px; stroke: rgb(0, 0, 0); stroke-opacity: 0; fill: rgb(0, 0, 0); fill-opacity: 0;"/><text class="annotation-text" text-anchor="middle" x="49.609375" y="18" style="font-family: 'Open Sans', verdana, arial, sans-serif; font-size: 16px; fill: rgb(42, 63, 95); fill-opacity: 1; white-space: pre;">Linear scale</text></g></g></g><g class="annotation" data-index="1" style="opacity: 1;"><g class="annotation-text-g" transform="rotate(0,403.175,88.5)"><g class="cursor-pointer" transform="translate(364, 77)"><rect class="bg" x="0.5" y="0.5" width="77" height="22" style="stroke-width: 1px; stroke: rgb(0, 0, 0); stroke-opacity: 0; fill: rgb(0, 0, 0); fill-opacity: 0;"/><text class="annotation-text" text-anchor="middle" x="39.21875" y="18" style="font-family: 'Open Sans', verdana, arial, sans-serif; font-size: 16px; fill: rgb(42, 63, 95); fill-opacity: 1; white-space: pre;">Log scale</text></g></g></g><g class="annotation" data-index="2" style="opacity: 1;"><g class="annotation-text-g" transform="rotate(0,288.5,361.5)"><g class="cursor-pointer" transform="translate(267, 350)"><rect class="bg" x="0.5" y="0.5" width="43" height="22" style="stroke-width: 1px; stroke: rgb(0, 0, 0); stroke-opacity: 0; fill: rgb(0, 0, 0); fill-opacity: 0;"/><text class="annotation-text" text-anchor="middle" x="21.8125" y="18" style="font-family: 'Open Sans', verdana, arial, sans-serif; font-size: 16px; fill: rgb(42, 63, 95); fill-opacity: 1; white-space: pre;">Days</text></g></g></g><g class="annotation" data-index="3" style="opacity: 1;"><g class="annotation-text-g" transform="rotate(-90,28.5,210)"><g class="cursor-pointer" transform="translate(-50, 199)"><rect class="bg" x="0.5" y="0.5" width="157" height="22" style="stroke-width: 1px; stroke: rgb(0, 0, 0); stroke-opacity: 0; fill: rgb(0, 0, 0); fill-opacity: 0;"/><text class="annotation-text" text-anchor="middle" x="79.203125" y="18" style="font-family: 'Open Sans', verdana, arial, sans-serif; font-size: 16px; fill: rgb(42, 63, 95); fill-opacity: 1; white-space: pre;">Number of infected</text></g></g></g></g></svg>